<?xml version="1.0" encoding="UTF-8"?>
<!DOCTYPE svg PUBLIC "-//W3C//DTD SVG 1.1//EN" "http://www.w3.org/Graphics/SVG/1.1/DTD/svg11.dtd">
<!-- Creator: CorelDRAW -->
<svg xmlns="http://www.w3.org/2000/svg" xml:space="preserve" width="3.5in" height="3.5in" version="1.1" style="shape-rendering:geometricPrecision; text-rendering:geometricPrecision; image-rendering:optimizeQuality; fill-rule:evenodd; clip-rule:evenodd"
viewBox="0 0 3500 3500"
 xmlns:xlink="http://www.w3.org/1999/xlink"
 xmlns:xodm="http://www.corel.com/coreldraw/odm/2003">
 <defs>
  <style type="text/css">
   <![CDATA[
    .fil5 {fill:none}
    .fil0 {fill:#FEFEFE}
    .fil2 {fill:#ED3237}
    .fil3 {fill:black}
    .fil9 {fill:#050450}
    .fil4 {fill:#1BAF01}
    .fil6 {fill:#DB0809}
    .fil10 {fill:#FDFDFE}
    .fil1 {fill:#FFB200}
    .fil8 {fill:white}
    .fil7 {fill:white;fill-rule:nonzero}
   ]]>
  </style>
    <clipPath id="id0">
     <path d="M1761.77 103.84c727.19,0 1316.69,589.5 1316.69,1316.69 0,727.19 -589.5,1316.69 -1316.69,1316.69 -727.19,0 -1316.69,-589.5 -1316.69,-1316.69 0,-727.19 589.5,-1316.69 1316.69,-1316.69z"/>
    </clipPath>
    <clipPath id="id1">
     <path d="M2327.17 1294.2l123.28 75.2c20.4,12.4 41.22,24.88 61.6,37.36 10.61,6.49 19.91,12.04 30.8,18.69l23.65 14.32c1.17,0.7 2.79,1.59 3.62,2.11l4.09 3.32c-4.7,4.38 -43.37,26.87 -52.21,32.27 -17.48,10.69 -35.3,21.89 -52.98,32.17 -17.45,10.14 -35.12,21.29 -52.27,31.73 -9.24,5.63 -17.61,10.61 -26.52,16.06 -7.09,4.33 -21.43,12.05 -26.23,16.45 -3.5,1.2 -33.77,19.59 -36.39,22.06l136.5 250.3 -291.68 10.18 -10.59 282.89 -257.96 -133.06c-2.3,5.13 -6.32,10.27 -9.33,15.12l-144.69 224.37 -144.24 -223.66c-3.11,-5 -7.14,-9.9 -9.56,-15.43l-258.05 132.93 -10.17 -281.7c-2.29,-1.68 -0.6,-0.82 -3.8,-1.5l-215.09 -7.31c-21.45,-0.68 -52.96,0.06 -73.19,-2.74l119.32 -219.01 17.4 -31.18 -247.23 -150.5c2.54,-3.64 26.6,-17.13 30.9,-19.75l215.9 -131.42 -136.4 -250.32c13.78,-2.34 232.17,-8.39 273.51,-9.69l13.85 -0.4c4.55,-0.63 2.04,0.48 4.1,-1.53 2.57,-3.83 9.55,-252.97 10.82,-281.43l257.72 132.81c5.02,-9.61 30.13,-46.77 38.28,-59.78 6.97,-11.14 112.6,-176.58 115.93,-179.56 4.37,4.22 32.51,49.85 38.56,59l115.45 180.01 257.72 -132.83c1.44,28.39 8.52,278.06 11.02,281.77 1.56,1.51 0.1,0.78 3.09,1.38l141.43 4.81c23.09,0.75 133.76,3.15 146.81,5.35l-136.76 250.13z"/>
    </clipPath>
 </defs>
 <g id="Layer_x0020_1">
  <metadata id="CorelCorpID_0Corel-Layer"/>
  <g id="_1857631763664">
   <path class="fil0" d="M1761.77 103.84c727.19,0 1316.69,589.5 1316.69,1316.69 0,727.19 -589.5,1316.69 -1316.69,1316.69 -727.19,0 -1316.69,-589.5 -1316.69,-1316.69 0,-727.19 589.5,-1316.69 1316.69,-1316.69z"/>
   <g style="clip-path:url(#id0)">
    <g>
     <ellipse class="fil1" cx="1752.67" cy="1339.65" rx="2047.53" ry="1248.91"/>
     <ellipse class="fil2" cx="1830.7" cy="1846.83" rx="2047.53" ry="1248.91"/>
     <ellipse class="fil3" cx="1772.18" cy="2422.27" rx="2047.53" ry="1248.91"/>
     <ellipse class="fil4" cx="1820.94" cy="3212.29" rx="2047.53" ry="1248.91"/>
    </g>
   </g>
   <path class="fil5" d="M1761.77 103.84c727.19,0 1316.69,589.5 1316.69,1316.69 0,727.19 -589.5,1316.69 -1316.69,1316.69 -727.19,0 -1316.69,-589.5 -1316.69,-1316.69 0,-727.19 589.5,-1316.69 1316.69,-1316.69z"/>
   <path class="fil6" d="M1426.85 250.12c8.96,-7.57 130.09,-28.65 151.64,-31.45 56.7,-7.36 112.81,-11.8 171.36,-11.77 58.58,0.04 114.57,4.37 171.35,11.78 21.37,2.79 142.84,23.92 151.61,31.45 9,-0.55 68.89,19.65 80.92,23.7 26.02,8.76 51.28,18.54 75.98,28.73 106.24,43.82 210.04,105.61 297.33,175.59 10.31,8.27 19.04,15.85 29.04,23.87l53.85 48.45c1.35,1.7 0.5,0.3 1.15,1.86 9.99,4.92 53.39,52.82 63.28,63.89l29.81 33.43c122.29,146.59 211.97,313.22 258.7,501.87 4.19,16.89 9.63,36.19 12.05,53.47 4.67,13.35 13.95,79.41 16.36,97.57 30.31,228.74 -10.03,480.35 -107.84,684.76 -48.71,101.8 -89.34,165.56 -155.22,249.84 -8.98,11.48 -17.56,20.96 -26.54,32.13 -16.43,20.44 -49.63,55.45 -69.32,74.52 -4.26,4.13 -9.32,9.85 -14.19,14.56 -132.51,128.26 -292.67,225.09 -469.31,285.52 -250.26,85.63 -547.55,87.37 -797.97,-0.04 -123.69,-43.17 -204.05,-84.66 -309,-154.69 -31.61,-21.09 -68.71,-50.32 -97.92,-74.7l-61.29 -54.93c-5.02,-4.76 -9.22,-9.79 -14.2,-14.55 -54.04,-51.67 -102.09,-112.56 -145.8,-172.93 -36.68,-50.67 -78.37,-126.13 -106.43,-184.74 -107.1,-223.69 -148.46,-511.57 -91.29,-784.26 30.9,-147.35 87.02,-285.13 162.35,-405.09l4.32 -7.15c32.02,-50.17 72.5,-105.83 111.28,-149.93l41.79 -45.63c17.07,-18.22 60.35,-61.19 80.22,-77.39l23.57 -20.16c113.22,-94.1 248.38,-173.68 388.87,-220.98 14.43,-4.86 78.32,-27 89.49,-26.62zm1233.93 2290.87c2.93,-6.33 102.5,-103.96 107.12,-108.8 103.6,-108.63 196.09,-239.09 261.61,-383.9 95.32,-210.64 149.1,-460.48 122.46,-725.47 -12.51,-124.37 -39.59,-243.75 -79.56,-350.96 -46.55,-124.89 -109.23,-244.87 -187.85,-349.54 -20.36,-27.11 -38.2,-50.4 -59.52,-75.12 -27.39,-31.75 -61.11,-68.99 -91.08,-97.61l-114.7 -100.49c-20.13,-15.81 -40.26,-31.04 -62.02,-46.14 -11.02,-7.65 -21.01,-14.29 -32.23,-21.86 -6.67,-4.5 -28.14,-18.74 -34.14,-21.15 -1.65,-2.94 -12.03,-8.07 -15.95,-10.45l-53.56 -30.44c-43.58,-24.49 -104.44,-52.28 -152.17,-71.04 -143.96,-56.57 -301.58,-92.38 -464.17,-97.57 -140.37,-4.48 -274.8,9.12 -403.21,42.26 -60.08,15.5 -114.59,33.18 -169.69,54.62 -51.85,20.18 -107.23,45.21 -153.21,71.19 -73.72,41.64 -138,81.65 -201.93,132.92 -51.74,41.5 -74.2,62.54 -119.14,105.24 -9.49,9.02 -18.2,19.34 -27.47,28.91 -121.26,125.25 -220.04,279.76 -286.15,442.21 -96.66,237.49 -128.37,516.02 -82,772.84 48.35,267.78 156.27,485.23 325.01,682.93l109.77 114.58 924.69 924.42c8.15,8.14 19.89,21.41 28.15,27.82 13.33,-11.5 98.41,-98.22 113.22,-113.05l227.83 -227.83c4.88,-4.86 8.88,-8.99 13.8,-13.81 1.39,-1.36 2.19,-2.07 3.46,-3.33l537.94 -538.06c2.56,-2.56 11.24,-12.51 14.68,-13.33z"/>
   <path class="fil7" d="M1419.91 222.18c11.67,-4.49 29.54,-8.98 49.35,-13.09 39.79,-8.25 91.91,-17.07 105.63,-18.85 29.59,-3.84 58.39,-6.87 86.56,-8.88 28.44,-2.03 57.74,-3.13 88.39,-3.11 30.69,0.02 59.97,1.11 88.37,3.12 28.35,2.01 57.15,5.03 86.69,8.88 13.63,1.78 65.97,10.64 105.82,18.9l-0 0.02c19.94,4.14 37.9,8.68 49.5,13.22 22.81,4.1 71.18,20.4 82.48,24.2l-0.01 0.04 0.13 0.01c14.47,4.87 27.56,9.58 39.61,14.17 11.34,4.31 24.26,9.5 38.17,15.24 54.25,22.38 107.68,49.19 158.51,79.2 51.57,30.46 100.81,64.39 145.9,100.54 3.43,2.74 9.26,7.61 15.09,12.46 3.6,3 7.16,5.97 13.95,11.41l1.24 1.01 53.85 48.45 2 2.14c-0.01,-0.01 -0.01,-0.01 0.02,0.02l0.52 0.52c6.1,4.72 13.48,11.62 21.12,19.34 16.17,16.32 36.42,38.72 42.9,45.96l0.11 0 29.8 33.43 0.56 0.79c63.73,76.39 118.77,158.05 163.7,245.2 43.35,84.1 77.38,173.39 100.84,268.13 1.01,4.09 0.88,3.31 2.7,10.43 3.55,13.89 7.33,28.67 9.59,43.73 2.17,7.59 4.57,20.07 6.89,33.89 3.96,23.59 8.22,54.33 9.79,66.14 15.47,116.73 12.97,239.24 -5.83,358.63 -18.92,120.11 -54.35,237.2 -104.59,342.2 -25,52.26 -47.81,94.54 -72.63,134.3 -24.87,39.82 -52.08,77.63 -85.85,120.83 -6.05,7.74 -10.74,13.28 -15.44,18.85 -3.91,4.62 -7.83,9.26 -11.33,13.62 -8.16,10.15 -19.91,23.37 -32.15,36.52 -13.81,14.85 -28.57,29.98 -39.54,40.59 -1.56,1.51 -3.66,3.72 -5.82,6 -2.63,2.77 -5.35,5.64 -8.37,8.56 -67.63,65.46 -142.24,122.9 -222.4,171.67 -80.74,49.12 -167.13,89.5 -257.7,120.49 -128.59,44 -269.4,66.34 -410.22,66.33 -139.39,-0.01 -278.81,-21.94 -406.41,-66.48 -63.13,-22.03 -115.24,-43.66 -165.01,-68.73 -49.68,-25.03 -96.96,-53.48 -150.51,-89.22 -15.17,-10.12 -31.19,-21.75 -46.85,-33.7 -18.99,-14.49 -37.53,-29.44 -53.54,-42.8l-0.67 -0.67 -61.29 -54.93 -0.67 -0.56c-3.19,-3.02 -5.79,-5.79 -8.39,-8.56 -2.02,-2.16 -4.04,-4.31 -5.81,-6 -28.09,-26.86 -54.37,-55.8 -79.13,-85.67 -24.63,-29.7 -47.94,-60.51 -70.15,-91.19 -17.41,-24.05 -36.19,-54.04 -54.3,-85.48 -20.28,-35.2 -39.48,-71.93 -54.72,-103.76 -56.19,-117.36 -94.71,-251.7 -111.06,-392.14 -15.6,-134.05 -11.06,-273.97 17.52,-410.32 15.67,-74.76 37.69,-147.1 65.3,-216 28,-69.85 61.78,-136.23 100.57,-198.06l-0.04 -0.02 4.32 -7.14 0.45 -0.56c17.1,-26.79 36.37,-54.87 56.33,-81.77 19.07,-25.7 38.66,-50.3 57.53,-71.76l0.45 -0.34 42.01 -45.86c10.36,-11.06 28.7,-29.63 45.76,-46.09 13.69,-13.2 27.25,-25.77 36.72,-33.54l23.57 -20.17 0.33 -0.23c59.25,-49.24 124.26,-94.54 192.74,-133.46 65.69,-37.33 134.76,-68.92 205.25,-92.66l-0.01 -0.04 5.3 -1.8c19.2,-6.52 64.85,-22.04 86.46,-25.57zm60.81 43.09c-20.5,4.25 -34.66,6.19 -35.33,6.76l-19.44 6.74c-4.83,-0.17 -54.75,16.8 -74.07,23.36l-5.3 1.8 -0.11 0c-66.85,22.51 -132.56,52.58 -195.24,88.2 -65.62,37.29 -127.71,80.51 -184.11,127.36l0.02 0.03 -23.57 20.16 -0.56 0.45c-7.94,6.47 -20.56,18.19 -33.69,30.85 -17.44,16.83 -34.65,34.17 -43.52,43.61l-41.41 45.23 0.08 0.07c-18.48,21.01 -37.02,44.25 -54.61,67.94 -19.35,26.07 -37.69,52.75 -53.7,77.8l0.06 0.04 -4.32 7.14 -0.33 0.45c-37.04,58.97 -69.33,122.42 -96.15,189.32 -26.38,65.83 -47.41,134.93 -62.38,206.33 -27.27,130.05 -31.56,263.78 -16.63,392.12 15.64,134.35 52.29,262.45 105.66,373.94 14.7,30.69 33.19,66.08 52.69,99.94 16.7,28.98 34.33,57.07 51.15,80.31 21.49,29.69 44.06,59.52 67.9,88.27 23.7,28.58 48.47,55.92 74.41,80.73 3.1,2.96 5.58,5.61 8.06,8.24 2.1,2.23 4.2,4.47 6.14,6.31l-0.02 0.02 59.93 53.7 0.03 -0.04c15.78,13.17 33.7,27.63 51.52,41.22 15.19,11.59 30.28,22.57 43.93,31.68 51.4,34.3 96.78,61.61 144.44,85.63 47.57,23.97 97.49,44.68 158.04,65.81 121.56,42.42 254.5,63.33 387.53,63.33 134.38,0 268.86,-21.35 391.79,-63.41 86.63,-29.64 169.17,-68.21 246.24,-115.09 76.63,-46.62 147.84,-101.42 212.29,-163.8 2.03,-1.96 4.46,-4.52 6.8,-6.98 2.46,-2.59 4.85,-5.11 7.4,-7.57 10.09,-9.77 24.09,-24.14 37.52,-38.57 11.49,-12.35 22.31,-24.49 29.45,-33.37 4.45,-5.54 8.35,-10.15 12.23,-14.74 5.07,-6.01 10.15,-12.01 14.09,-17.05 32.11,-41.09 58.16,-77.31 82.25,-115.89 24.14,-38.64 46.01,-79.15 69.71,-128.68 47.83,-99.96 81.59,-211.59 99.65,-326.24 17.97,-114.09 20.37,-231.08 5.61,-342.45 -1.43,-10.75 -5.44,-39.47 -9.57,-64.11 -2.25,-13.43 -4.31,-24.49 -5.44,-27.73l-1.35 -5.5c-1.63,-11.64 -5.33,-26.11 -8.79,-39.67l-2.7 -10.88c-22.35,-90.25 -54.8,-175.35 -96.13,-255.54 -42.96,-83.34 -95.44,-161.3 -156.11,-234.13l-0.05 0.05 -29.81 -33.43 0.06 -0.06c-6.04,-6.76 -24.84,-27.52 -40.83,-43.67 -7.51,-7.58 -13.26,-13.29 -13.75,-13.54l-6.78 -7.23 -0.89 0.99 -0.4 -0.36 -0.05 0.04 -0.65 -0.67 -52.62 -47.33c-3.27,-2.66 -8.4,-6.93 -13.54,-11.2 -3.69,-3.07 -7.44,-6.2 -14.41,-11.79 -42.77,-34.29 -89.74,-66.64 -139.16,-95.82 -48.86,-28.85 -99.8,-54.45 -151.09,-75.61 -10.79,-4.45 -22.86,-9.25 -36.83,-14.56 -13.26,-5.04 -25.81,-9.6 -37.36,-13.49l0.01 -0.04 -0.13 -0.01c-11.4,-3.84 -66.5,-22.41 -70.01,-22.19l-20.34 -6.86c-0.76,-0.65 -14.61,-2.37 -35,-6.59l-0.11 0c-38.93,-8.08 -88.86,-16.57 -101.55,-18.23 -27.24,-3.56 -54.83,-6.41 -83.32,-8.43 -28.43,-2.02 -56.44,-3.11 -84.33,-3.13 -27.89,-0.02 -55.93,1.09 -84.35,3.11 -28.69,2.04 -56.3,4.91 -83.41,8.43 -12.78,1.66 -62.5,10.12 -101.37,18.18z"/>
   <path class="fil8" d="M2327.17 1294.2l123.28 75.2c20.4,12.4 41.22,24.88 61.6,37.36 10.61,6.49 19.91,12.04 30.8,18.69l23.65 14.32c1.17,0.7 2.79,1.59 3.62,2.11l4.09 3.32c-4.7,4.38 -43.37,26.87 -52.21,32.27 -17.48,10.69 -35.3,21.89 -52.98,32.17 -17.45,10.14 -35.12,21.29 -52.27,31.73 -9.24,5.63 -17.61,10.61 -26.52,16.06 -7.09,4.33 -21.43,12.05 -26.23,16.45 -3.5,1.2 -33.77,19.59 -36.39,22.06l136.5 250.3 -291.68 10.18 -10.59 282.89 -257.96 -133.06c-2.3,5.13 -6.32,10.27 -9.33,15.12l-144.69 224.37 -144.24 -223.66c-3.11,-5 -7.14,-9.9 -9.56,-15.43l-258.05 132.93 -10.17 -281.7c-2.29,-1.68 -0.6,-0.82 -3.8,-1.5l-215.09 -7.31c-21.45,-0.68 -52.96,0.06 -73.19,-2.74l119.32 -219.01 17.4 -31.18 -247.23 -150.5c2.54,-3.64 26.6,-17.13 30.9,-19.75l215.9 -131.42 -136.4 -250.32c13.78,-2.34 232.17,-8.39 273.51,-9.69l13.85 -0.4c4.55,-0.63 2.04,0.48 4.1,-1.53 2.57,-3.83 9.55,-252.97 10.82,-281.43l257.72 132.81c5.02,-9.61 30.13,-46.77 38.28,-59.78 6.97,-11.14 112.6,-176.58 115.93,-179.56 4.37,4.22 32.51,49.85 38.56,59l115.45 180.01 257.72 -132.83c1.44,28.39 8.52,278.06 11.02,281.77 1.56,1.51 0.1,0.78 3.09,1.38l141.43 4.81c23.09,0.75 133.76,3.15 146.81,5.35l-136.76 250.13z"/>
   <g style="clip-path:url(#id1)">
    <g>
     <path id="_1" class="fil9" d="M1155.07 1627.31c-9.83,4.12 -24.9,8.35 -35.1,11.81 -33.02,11.19 -70.26,25.18 -101.98,38.47 -11.92,4.99 -23.29,9.81 -34.63,14.77l-65.16 118.63 11.67 27.28c16.94,37.9 45.43,84.43 71.41,122.54l208.49 7.04 7.96 214.8c41.18,29.67 85.84,56.98 134.98,80.89 16.82,-8.82 29.94,-15.75 34.84,-18.35 26.39,-13.98 54.62,-29.61 81.34,-42.05 28.08,-13.08 55.18,-30.83 82.55,-42.41 4.19,4.02 74.74,113.48 124.67,191.49 42.05,3.65 84.56,4.3 125.86,1.13 7.85,-0.61 15.61,-1.27 23.3,-2 42.41,-65.94 88.52,-138.29 97.3,-152.35 6.36,-10.2 18.81,-31.51 25.86,-38.26l163.89 84.46c4.91,2.61 17.96,9.5 34.7,18.28 49.32,-24.17 94.39,-51.43 134.96,-80.67l7.66 -215.01 209.4 -7.01c1.55,-2.22 3.1,-4.48 4.67,-6.79 31.31,-46.18 56.56,-92.93 78.06,-142.44l-95.23 -174.72c5.41,-5.22 25.57,-16.53 35.38,-22.14 -6.28,-1.91 -12.57,-3.76 -18.91,-5.5l-104.04 -27.06c-11.15,-2.72 -24.24,-5.08 -34.96,-8.24 -3.5,1.2 -33.77,19.59 -36.39,22.06l136.5 250.3 -291.68 10.18 -10.59 282.89 -257.96 -133.06c-2.3,5.13 -6.32,10.27 -9.33,15.12l-144.69 224.37 -144.24 -223.66c-3.11,-5 -7.14,-9.9 -9.56,-15.43l-258.05 132.93 -10.17 -281.7c-2.29,-1.68 -0.6,-0.82 -3.8,-1.5l-215.09 -7.31c-21.45,-0.68 -52.96,0.06 -73.19,-2.74l119.32 -219.01zm349.44 693.74c3.11,0.87 6.24,1.72 9.39,2.56 -1.1,-1.91 -2.11,-3.85 -2.99,-5.85l-6.39 3.29zm481.24 2.77c3.63,-0.95 7.24,-1.92 10.85,-2.91l-7.31 -3.78c-1,2.23 -2.21,4.46 -3.54,6.69zm-396.77 -788.04c-59.17,4.97 -191.52,27.31 -250.26,41.59l-77.78 18.96 -72.93 132.77c-2.17,3.77 -23.61,40.97 -23.12,44.37l237.39 8.02 8.6 232.18c4.89,-0.48 93.77,-47.35 105.8,-53.72 16.98,-9 35.15,-19.05 52.34,-27.06 18.07,-8.42 35.51,-19.84 53.12,-27.29 3.99,3.83 101.61,156.42 111.13,171.8 4.6,7.44 11.4,18.93 16.59,24.91 5.35,-6.16 100.5,-155.11 111.08,-172.08 4.09,-6.57 12.1,-20.28 16.64,-24.62l105.46 54.35c12.09,6.41 100.81,53.23 105.82,53.72l8.27 -232.22 238.43 -7.99 -111.72 -204.97c3.83,-3.7 19.18,-12.15 24.46,-15.22l-18.77 -4.23c-6.56,-0.98 -14.12,-1.89 -20.65,-2.77 -13.02,-1.75 -26.67,-3.53 -40.01,-5.6 -70.16,-10.89 -187.44,-18.56 -257.15,-18.92l-5.38 2.56 114.05 322.2c-5.14,-2.52 -11.9,-8.83 -17.14,-12.63 -5.95,-4.31 -11.61,-8.91 -16.96,-12.96 -11.61,-8.78 -22.56,-17.15 -33.79,-26.04l-67.61 -52.05c-16.43,-12.01 -129.05,-100.19 -135.03,-103.35l-169.5 129.86c-11.51,9.09 -22.28,16.95 -33.78,26.04 -11.29,8.92 -21.91,17.17 -33.8,26.02 -6.34,4.71 -28.71,22.77 -33.78,24.99l110 -310.61z"/>
     <path class="fil6" d="M983.36 1692.36c11.33,-4.96 22.71,-9.78 34.63,-14.77 31.72,-13.29 68.96,-27.28 101.98,-38.47 10.2,-3.46 25.27,-7.69 35.1,-11.81l17.4 -31.18 -247.23 -150.5c2.54,-3.64 26.6,-17.13 30.9,-19.75l215.9 -131.42 -136.4 -250.32c13.78,-2.34 232.17,-8.39 273.51,-9.69l13.85 -0.4c4.55,-0.63 2.04,0.48 4.1,-1.53 2.57,-3.83 9.55,-252.97 10.82,-281.43l257.72 132.81c5.02,-9.61 30.13,-46.77 38.28,-59.78 6.97,-11.14 112.6,-176.58 115.93,-179.56 4.37,4.22 32.51,49.85 38.56,59l115.45 180.01 257.72 -132.83c1.44,28.39 8.52,278.06 11.02,281.77 1.56,1.51 0.1,0.78 3.09,1.38l141.43 4.81c23.09,0.75 133.76,3.15 146.81,5.35l-136.76 250.13 123.28 75.2c20.4,12.4 41.22,24.88 61.6,37.36 10.61,6.49 19.91,12.04 30.8,18.69l23.65 14.32c1.17,0.7 2.79,1.59 3.62,2.11l4.09 3.32c-4.7,4.38 -43.37,26.87 -52.21,32.27 -17.48,10.69 -35.3,21.89 -52.98,32.17 -17.45,10.14 -35.12,21.29 -52.27,31.73 -9.24,5.63 -17.61,10.61 -26.52,16.06 -7.09,4.33 -21.43,12.05 -26.23,16.45 10.72,3.16 23.81,5.52 34.96,8.24l104.04 27.06c6.33,1.75 12.63,3.6 18.91,5.5 0.99,-0.57 1.88,-1.08 2.64,-1.52l129.6 -78.76c1.96,-20.67 3.27,-41.44 4.01,-62.02 1.15,-32.07 0.22,-66.13 -2.39,-97.92 -0.41,-4.93 -0.96,-11.58 -1.65,-19.09 -42.61,-25.65 -80.13,-48.05 -88.69,-53.28 -12.78,-7.81 -25.68,-15.97 -38.85,-23.71 -10.91,-6.42 -30.69,-16.98 -39.47,-24.51 1.79,-6.91 49.7,-92.93 94.53,-173.94 -23.63,-53.23 -53.26,-106.15 -84.35,-150.59l-201.81 -6.82c-4.66,-1 -2.54,0.08 -5.08,-2.26l-7.98 -210.21 -9.28 -6.75c-35.57,-25.87 -80.71,-52.3 -128.39,-75.46 -52.01,26.98 -102.15,53.31 -113.76,59.43 -25.53,13.44 -56.57,30.75 -82.55,42.21 -5.16,-3.81 -68.28,-103.93 -122.11,-188.64 -38.15,-3.37 -77.53,-4.31 -121.28,-2.49 -10.31,0.43 -20.62,1.06 -30.94,1.89 -11.36,17.94 -20.32,32.11 -23.42,36.78 -11.89,17.92 -94.03,148.65 -99.23,152.46 -35.04,-15.51 -124.39,-63.87 -163.66,-84.43 -4.62,-2.42 -17.04,-8.94 -33.11,-17.33 -19.57,9.44 -38.69,19.53 -57.24,30.21 -22.09,12.72 -48.4,29.32 -68.85,43.91 -3.48,2.48 -7.11,5.02 -10.78,7.61l-7.45 210.83 -9.25 2.61c-3.54,0.3 -8.88,0.13 -12.66,0.23l-185.62 6.24c-15.3,22.09 -27.5,40.2 -43.74,69.09 -15.06,26.78 -28.7,54.01 -40.93,81.69 24.35,44.2 46.33,83.79 51.7,93.67 6.47,11.91 41.01,72.7 42.89,80.07l-166.92 101.69c-4.05,41.27 -5.37,83.41 -3.91,126.44 0.54,15.81 1.76,33.21 3.61,51.47l167.66 102.46 -23.08 44.15 -6.74 12.27zm1010.5 -1122.3c-2.45,-0.65 -4.89,-1.28 -7.31,-1.88l2.72 4.24 4.58 -2.36zm-481.22 -1.36c-2.3,0.63 -4.59,1.26 -6.88,1.9l4.52 2.33c0.61,-1.16 1.41,-2.59 2.36,-4.23zm-251.7 1027.62l77.78 -18.96c58.74,-14.27 191.09,-36.62 250.26,-41.59l4.19 -11.49c-7.15,-2.75 -27.97,-18.15 -35.74,-23.6 -57.12,-40.15 -118.35,-80.29 -176.11,-120.76 -20.45,-14.33 -51.94,-34.39 -69.44,-48.17l341.32 9.1 96.21 -326.76c1.61,1.65 0.74,-0.37 2.09,3.76l4.59 16.04c1.95,6.9 4.1,13.87 6.07,20.43l72.42 245.2c3.93,13.01 8.85,27.93 11.91,41.15l341.32 -9.12c-22.79,18.36 -110.54,76.04 -137.79,95.1 -44.76,31.31 -95.19,64.08 -138.31,95.09 69.7,0.36 186.99,8.03 257.15,18.92 13.34,2.07 27,3.85 40.01,5.6 6.52,0.88 14.09,1.8 20.65,2.77l18.77 4.23 177.17 -107.67c-5.96,-6.08 -137.06,-84.06 -150.87,-92.5 -8.23,-5.02 -16.53,-10.28 -25,-15.26 -7.02,-4.13 -19.75,-10.92 -25.4,-15.77 2.18,-8.42 110.8,-199.43 110.84,-205.31l-234.15 -7.91c-3,-0.65 -1.64,0.05 -3.27,-1.45l-8.76 -230.77c-5,0.43 -141.7,72.18 -158.16,80.85 -16.43,8.65 -36.4,19.79 -53.11,27.16 -5.65,-4.17 -119.26,-187.74 -127.72,-196.61 -5.95,6.24 -57.03,88.2 -63.87,98.51 -7.65,11.53 -60.5,95.65 -63.85,98.1 -22.55,-9.98 -80.04,-41.1 -105.31,-54.33 -11.73,-6.14 -101.55,-53.35 -106.02,-53.61l-8.16 230.72 -5.95 1.68c-2.28,0.2 -5.71,0.09 -8.15,0.15l-223.88 7.52c0.03,4.08 74.64,137.98 83.23,153.79 4.16,7.66 26.39,46.78 27.6,51.52l-201.31 122.64 201.59 123.2 -14.85 28.41z"/>
     <path class="fil10" d="M2248.29 1553.27c-5.28,3.07 -20.63,11.52 -24.46,15.22l111.72 204.97 -238.43 7.99 -8.27 232.22c-5.01,-0.49 -93.73,-47.31 -105.82,-53.72l-105.46 -54.35c-4.54,4.35 -12.55,18.06 -16.64,24.62 -10.59,16.97 -105.74,165.92 -111.08,172.08 -5.2,-5.97 -11.99,-17.46 -16.59,-24.91 -9.52,-15.38 -107.13,-167.96 -111.13,-171.8 -17.61,7.45 -35.05,18.87 -53.12,27.29 -17.19,8.01 -35.36,18.06 -52.34,27.06 -12.03,6.37 -100.91,53.24 -105.8,53.72l-8.6 -232.18 -237.39 -8.02c-0.48,-3.4 20.95,-40.6 23.12,-44.37l72.93 -132.77 14.85 -28.41 -201.59 -123.2 201.31 -122.64c-1.22,-4.75 -23.44,-43.87 -27.6,-51.52 -8.59,-15.81 -83.2,-149.7 -83.23,-153.79l223.88 -7.52c2.43,-0.06 5.87,0.05 8.15,-0.15l5.95 -1.68 8.16 -230.72c4.47,0.26 94.29,47.48 106.02,53.61 25.27,13.23 82.76,44.34 105.31,54.33 3.35,-2.45 56.2,-86.57 63.85,-98.1 6.84,-10.31 57.92,-92.27 63.87,-98.51 8.46,8.87 122.07,192.44 127.72,196.61 16.71,-7.37 36.69,-18.51 53.11,-27.16 16.46,-8.67 153.17,-80.41 158.16,-80.85l8.76 230.77c1.63,1.5 0.27,0.81 3.27,1.45l234.15 7.91c-0.04,5.88 -108.67,196.89 -110.84,205.31 5.65,4.85 18.38,11.64 25.4,15.77 8.47,4.98 16.77,10.23 25,15.26 13.81,8.44 144.91,86.42 150.87,92.5l-177.17 107.67zm-659.31 -17.49l-110 310.61c5.07,-2.22 27.44,-20.28 33.78,-24.99 11.89,-8.85 22.51,-17.1 33.8,-26.02 11.5,-9.09 22.27,-16.95 33.78,-26.04l169.5 -129.86c5.98,3.16 118.61,91.34 135.03,103.35l67.61 52.05c11.23,8.88 22.19,17.25 33.79,26.04 5.36,4.06 11.01,8.65 16.96,12.96 5.24,3.8 12,10.12 17.14,12.63l-114.05 -322.2 5.38 -2.56c43.13,-31.01 93.55,-63.77 138.31,-95.09 27.25,-19.07 115,-76.74 137.79,-95.1l-341.32 9.12c-3.06,-13.23 -7.98,-28.15 -11.91,-41.15l-72.42 -245.2c-1.97,-6.56 -4.12,-13.53 -6.07,-20.43l-4.59 -16.04c-1.35,-4.12 -0.48,-2.11 -2.09,-3.76l-96.21 326.76 -341.32 -9.1c17.5,13.78 48.99,33.84 69.44,48.17 57.76,40.46 118.99,80.61 176.11,120.76 7.76,5.46 28.59,20.85 35.74,23.6l-4.19 11.49zm-433.91 91.53l-119.32 219.01c20.23,2.8 51.74,2.06 73.19,2.74l215.09 7.31c3.2,0.68 1.51,-0.18 3.8,1.5l10.17 281.7 258.05 -132.93c2.43,5.52 6.46,10.42 9.56,15.43l144.24 223.66 144.69 -224.37c3.01,-4.85 7.04,-9.99 9.33,-15.12l257.96 133.06 10.59 -282.89 291.68 -10.18 -136.5 -250.3c2.62,-2.46 32.89,-20.85 36.39,-22.06 4.8,-4.41 19.14,-12.12 26.23,-16.45 8.91,-5.45 17.28,-10.43 26.52,-16.06 17.15,-10.44 34.82,-21.59 52.27,-31.73 17.69,-10.28 35.5,-21.48 52.98,-32.17 8.83,-5.4 47.5,-27.89 52.21,-32.27l-4.09 -3.32c-0.83,-0.52 -2.44,-1.41 -3.62,-2.11l-23.65 -14.32c-10.89,-6.65 -20.2,-12.2 -30.8,-18.69 -20.38,-12.48 -41.2,-24.96 -61.6,-37.36l-123.28 -75.2 136.76 -250.13c-13.05,-2.2 -123.72,-4.6 -146.81,-5.35l-141.43 -4.81c-2.99,-0.6 -1.54,0.13 -3.09,-1.38 -2.49,-3.71 -9.57,-253.39 -11.02,-281.77l-257.72 132.83 -115.45 -180.01c-6.06,-9.15 -34.2,-54.78 -38.56,-59 -3.33,2.98 -108.96,168.42 -115.93,179.56 -8.15,13.01 -33.26,50.17 -38.28,59.78l-257.72 -132.81c-1.27,28.46 -8.26,277.6 -10.82,281.43 -2.06,2 0.45,0.89 -4.1,1.53l-13.85 0.4c-41.34,1.3 -259.73,7.35 -273.51,9.69l136.4 250.32 -215.9 131.42c-4.3,2.62 -28.37,16.11 -30.9,19.75l247.23 150.5 -17.4 31.18z"/>
     <path class="fil7" d="M2155.12 606.31c24.31,11.81 48.21,24.59 70.76,37.84 22.56,13.26 43.3,26.69 61.29,39.77l0 0.09 18.67 13.59 7.66 201.63 196.5 6.64 6.86 9.8c33.82,48.35 62.67,100.72 86.59,154.62l4.82 10.86 -21.17 38.23c-28.89,52.18 -56.72,102.41 -69.53,126.23 4.17,2.47 8.56,4.98 12.55,7.25 16.16,9.2 31.89,19.13 47.76,28.82 5.92,3.62 16.93,10.22 31.93,19.21l66.98 40.17c0.97,10.51 1.99,21.01 2.86,31.53 4.5,54.71 3.46,109.43 -1.71,164.06l-1.13 11.91c-46.9,28.51 -94.2,58.67 -141.59,86.01l0 0.09 -1.5 0.81c-5.27,3 -10.54,6 -15.77,9.07l90.37 165.79 -4.63 10.67c-11.1,25.56 -23.11,50.28 -36.29,74.43 -13.22,24.22 -27.77,48.11 -43.93,71.94 -3.84,5.67 -7.78,11.26 -11.7,16.88l-199.04 6.67 -7.28 204.41 -9.51 6.85c-43.72,31.51 -90.03,59.02 -138.43,82.73l-10.85 5.32c-15.16,-7.95 -30.33,-15.88 -45.47,-23.87l-145.7 -75.09c-4.3,6.72 -8.43,13.56 -12.59,20.37 -3.07,4.93 -18.8,29.62 -40.81,64.09 -20.94,32.79 -41.91,65.57 -62.95,98.3 -11.8,1.13 -23.56,2.29 -35.37,3.2 -20.37,1.57 -41.57,2.2 -63.33,2.01 -22.89,-0.2 -45.06,-1.29 -66.37,-3.13l-11.65 -1.01c-39.41,-61.56 -78.91,-123.07 -118.96,-184.21 -21.64,11.01 -42.4,23.72 -64.43,33.98 -27.28,12.71 -53.78,27.27 -80.31,41.49 -15.19,8.02 -30.41,15.97 -45.63,23.95l-10.75 -5.23c-25.48,-12.39 -49.58,-25.54 -72.44,-39.31 -22.59,-13.6 -44.6,-28.24 -66.1,-43.73l-9.49 -6.84 -7.57 -204.21 -198.39 -6.7 -6.8 -9.98c-14.24,-20.88 -29.26,-44.32 -42.85,-67.64 -11.69,-20.06 -22.36,-40.16 -30.62,-58.65l-16.42 -38.34 77.5 -141.09 0.04 0.02 12.49 -23.89 -158.72 -97c-1.33,-13.12 -2.68,-26.21 -3.61,-39.37 -0.56,-8.06 -1,-16.61 -1.31,-25.57 -1.46,-43.17 -0.2,-86.45 4,-129.44l1.18 -11.98 158.59 -96.61c-7.22,-13.33 -17.94,-32.55 -25.29,-45.71 -3.24,-5.81 -5.81,-10.43 -7.65,-13.79 -19.15,-34.63 -38.31,-69.27 -57.41,-103.93l4.77 -10.81c5.88,-13.32 12.54,-27.39 19.95,-42.19 13.7,-27.34 28.46,-54.13 44.98,-79.88 9.25,-14.42 19.09,-28.46 28.85,-42.54l197.17 -6.63 7.16 -202.56 20.37 -14.34c9.89,-7.06 21.57,-14.84 33.75,-22.61 30.96,-19.74 62.74,-37.62 95.8,-53.57l10.78 -5.19c26.15,13.65 52.32,27.26 78.37,41.09 35.56,18.87 81.17,43.08 110.69,57.5 12.75,-19.97 40.83,-64.04 61.55,-96.56 18.21,-28.58 36.53,-57.08 54.66,-85.71 14.62,-1.17 29.11,-2.23 43.78,-2.84 41.32,-1.72 83.07,-1.15 124.28,2.49l11.81 1.04 28.93 45.54c35.93,56.61 71.87,113.23 86.6,136.13 21.65,-10.56 42.87,-22.21 64.12,-33.57 3.46,-1.82 20.04,-10.51 57.41,-30.03 22.37,-11.69 44.74,-23.37 67.15,-34.98l10.75 5.22zm46.6 79.04c-17.83,-10.48 -36.92,-20.81 -56.71,-30.71 -34.36,17.83 -68.65,35.76 -102.9,53.79 -11.17,5.88 -14.43,7.63 -17.91,9.49 -22,11.76 -45.93,24.56 -66.13,33.47l-12.65 5.58 -11.23 -8.3c-8.13,-6 -56.85,-82.76 -105.54,-159.47l-16.16 -25.45c-41.44,-3.14 -83.2,-3.2 -124.66,-0.53 -8.54,13.48 -14.98,23.63 -17.21,27 -4.75,7.16 -13.64,21.11 -24.69,38.46 -29.58,46.42 -73.15,114.81 -80.35,120.09l-11.19 8.2 -12.6 -5.58c-27.94,-12.37 -86.98,-43.7 -130.85,-66.99 -20.47,-10.86 -29.76,-15.86 -34.22,-18.19l-22.35 -11.71c-39.29,19.61 -77.35,42.16 -113.11,67.65l-7.65 216.43 -30.55 8.18c-4.54,0.39 -9.3,0.12 -13.88,0.23l-173.52 5.84c-4.75,6.95 -9.37,13.86 -14.24,21.44 -6.66,10.39 -13.52,21.73 -21.47,35.88 -12.69,22.57 -24.36,45.33 -35.08,68.89 9.86,17.87 19.12,34.62 26.78,48.48 8.89,16.08 17.68,32.22 26.63,48.27 12.96,23.22 35.49,63.61 37.69,72.18l4.37 17.09 -171.82 104.67c-3.15,37.09 -3.98,74.31 -2.72,111.51 0.43,12.67 1.32,25.41 2.41,38.05l176.5 107.86 -99.93 185.14 7.09 16.59 -0.02 0.01c7.38,16.45 17.23,34.94 28.2,53.76 10.79,18.52 22.63,37.26 34.24,54.67l218.51 7.38 8.34 225.28c35.37,24.8 72.66,47.25 111.24,66.69l41.25 -21.82c22.12,-11.84 44.96,-24.06 65.13,-33.46 28.35,-13.2 54.48,-30.46 83.39,-42.69l14.49 -6.13 11.35 10.91c3.2,3.08 18.53,25.93 38.98,57.33 22.85,35.1 54.93,84.98 82.77,128.44 36.92,2.74 73.49,3.04 110.43,0.2 2.72,-0.21 6.49,-0.52 11.3,-0.94 22.37,-34.8 39.3,-61.21 50.32,-78.46 18.28,-28.63 34,-53.41 40.43,-63.72 2.26,-3.62 2.84,-4.57 3.6,-5.81 7.39,-12.08 17.93,-29.3 26.01,-37.04l12.37 -11.84c67.74,34.91 135.71,69.43 203.12,104.97 38.51,-19.5 75.81,-41.7 111.17,-66.47l8.03 -225.51 219.62 -7.35c26.54,-39.55 49.48,-81.2 69.01,-124.63l-98.35 -180.43 13.13 -12.65c7.14,-6.88 26.5,-17.91 37.85,-24.38l2.24 -1.28 -0.02 -0.04 1.41 -0.81 0.04 0.07 119.93 -72.85c2.58,-31.91 3.89,-63.76 3.11,-95.79 -0.45,-18.39 -1.65,-36.6 -3.2,-54.92l-46.05 -27.69c-17.11,-10.26 -29.56,-17.73 -32.3,-19.4 -12.78,-7.9 -25.53,-15.91 -38.48,-23.52l-7.97 -4.56c-11.72,-6.68 -26.42,-15.06 -34.96,-22.38l-11.32 -9.71 3.74 -14.45c2.34,-9.04 40.84,-78.55 81.37,-151.73l9.6 -17.34c-10.09,-21.9 -21.41,-44.05 -33.59,-65.8 -11.94,-21.31 -24.35,-41.59 -36.91,-60.2l-195.11 -7.07c-2.39,-0.36 -3.65,-0.56 -6.97,-2.04l0.01 -0.04c-4.64,-2.07 -5.79,-3.28 -8.17,-5.79 -0.04,-0.04 0.1,0.11 -0.02,-0.01l-7.3 -6.73 -7.92 -208.54c-17.37,-12.63 -36.72,-25.2 -57.24,-37.26z"/>
    </g>
   </g>
   <path class="fil5" d="M2327.17 1294.2l123.28 75.2c20.4,12.4 41.22,24.88 61.6,37.36 10.61,6.49 19.91,12.04 30.8,18.69l23.65 14.32c1.17,0.7 2.79,1.59 3.62,2.11l4.09 3.32c-4.7,4.38 -43.37,26.87 -52.21,32.27 -17.48,10.69 -35.3,21.89 -52.98,32.17 -17.45,10.14 -35.12,21.29 -52.27,31.73 -9.24,5.63 -17.61,10.61 -26.52,16.06 -7.09,4.33 -21.43,12.05 -26.23,16.45 -3.5,1.2 -33.77,19.59 -36.39,22.06l136.5 250.3 -291.68 10.18 -10.59 282.89 -257.96 -133.06c-2.3,5.13 -6.32,10.27 -9.33,15.12l-144.69 224.37 -144.24 -223.66c-3.11,-5 -7.14,-9.9 -9.56,-15.43l-258.05 132.93 -10.17 -281.7c-2.29,-1.68 -0.6,-0.82 -3.8,-1.5l-215.09 -7.31c-21.45,-0.68 -52.96,0.06 -73.19,-2.74l119.32 -219.01 17.4 -31.18 -247.23 -150.5c2.54,-3.64 26.6,-17.13 30.9,-19.75l215.9 -131.42 -136.4 -250.32c13.78,-2.34 232.17,-8.39 273.51,-9.69l13.85 -0.4c4.55,-0.63 2.04,0.48 4.1,-1.53 2.57,-3.83 9.55,-252.97 10.82,-281.43l257.72 132.81c5.02,-9.61 30.13,-46.77 38.28,-59.78 6.97,-11.14 112.6,-176.58 115.93,-179.56 4.37,4.22 32.51,49.85 38.56,59l115.45 180.01 257.72 -132.83c1.44,28.39 8.52,278.06 11.02,281.77 1.56,1.51 0.1,0.78 3.09,1.38l141.43 4.81c23.09,0.75 133.76,3.15 146.81,5.35l-136.76 250.13z"/>
  </g>
 </g>
</svg>
